<svg version="1.2" xmlns="http://www.w3.org/2000/svg" viewBox="0 0 24 24" width="24" height="24">
	<title>search-svg</title>
	<style>
		.s0 { fill: #ffffff } 
	</style>
	<g id="Layer 2">
		<path id="search" fill-rule="evenodd" class="s0" d="m20.9 19.6q0.1 0.2 0.1 0.4 0 0.2-0.1 0.4 0 0.2-0.2 0.3-0.1 0.2-0.3 0.2-0.2 0.1-0.4 0.1-0.2 0-0.4-0.1-0.2 0-0.3-0.2l-3.4-3.4q-0.5 0.4-1.1 0.7-0.6 0.4-1.2 0.6-0.6 0.2-1.3 0.3-0.6 0.1-1.3 0.1c-3.2 0-6.2-1.9-7.4-4.9-1.2-3-0.5-6.5 1.7-8.8 2.3-2.2 5.8-2.9 8.8-1.7 3 1.2 4.9 4.2 4.9 7.4q0 0.7-0.1 1.3-0.1 0.7-0.3 1.3-0.2 0.6-0.6 1.2-0.3 0.6-0.7 1.1l3.4 3.4q0.2 0.1 0.2 0.3zm-15.4-6.3q0.4 1.1 1.3 1.9 0.8 0.9 1.9 1.3 1.1 0.5 2.3 0.5c2.4 0 4.6-1.5 5.5-3.7 1-2.2 0.5-4.8-1.3-6.5-1.7-1.8-4.3-2.3-6.5-1.3-2.2 0.9-3.7 3.1-3.7 5.5q0 1.2 0.5 2.3z"/>
	</g>
</svg>